<svg
                    xmlns="http://www.w3.org/2000/svg"
                    data-name="Layer 1"
                    width="434"
                    height="400"
                    viewBox="0 0 434.25755 761.18545"
                  >
                    <path
                      d="M419.47424,104.6649a7.17472,7.17472,0,0,1,8.39568-1.83068c3.05918,1.528,4.24616,4.779,3.75739,8.01154-.546,3.61116-2.43229,6.89855-2.60361,10.59594-.14993,3.23577,1.05626,6.63569,3.92362,8.37775,2.05611,1.24919,4.17243-1.84326,2.10645-3.09843-3.39963-2.06545-2.2572-6.60432-1.27107-9.70029,1.23134-3.86583,2.51446-7.80685.99117-11.79014A10.75885,10.75885,0,0,0,417.011,101.841c-1.62225,1.74928.82053,4.59525,2.46324,2.8239Z"
                      transform="translate(-382.87122 -69.40728)"
                      fill="#3b82f6"
                    />
                    <circle
                      cx="53.10542"
                      cy="67.4631"
                      r="3.74666"
                      fill="#3b82f6"
                    />
                    <path
                      d="M671.78553,793.62382l-59.31518-.35422-19.32434-.113c-3.32055-.01728-6.04306,1.24516-6.0796,2.82019l-.07779,3.12386-.651,25.04745c-.04952,1.565,2.608,2.86449,5.92844,2.88181a251.579,251.579,0,0,0,73.14929,1.18587q2.731-.3311,5.49443-.72681a11.21563,11.21563,0,0,0,3.32254-.452c1.64013-.50577,2.7243-1.3732,2.75286-2.36011l.087-3.28506.04754-2.02616.59447-22.86012C677.75052,794.9306,675.089,793.63917,671.78553,793.62382Z"
                      transform="translate(-382.87122 -69.40728)"
                      fill="#e6e6e6"
                    />
                    <path
                      d="M667.40149,795.75664l-56.43183-.32656-13.54537-.082c-3.10405-.01841-5.65864,1.16065-5.69743,2.633l-.04981,1.92348-.57772,22.29013c-.03879,1.4723,2.44682,2.68406,5.55087,2.70247,19.58831,2.02074,37.766,3.05382,50.56358.29408,9.316.04718,17.53244-2.3348,21.918-5.90152.05846-.0446.11285-.08111.17121-.12572.03331-.03041.0877-.06692.121-.09728a7.80929,7.80929,0,0,0,3.14628-5.61053l.38194-14.997C672.99115,796.98682,670.50541,795.77509,667.40149,795.75664Z"
                      transform="translate(-382.87122 -69.40728)"
                      fill="#fff"
                    />
                    <path
                      d="M615.04678,812.10329c-1.7297-1.2285-1.91077-2.89848.16792-4.07515,2.1963-1.24322,5.63408-1.433,8.66485-.85158,3.38581.64949,6.14564,1.88168,9.7023,2.36778,3.11262.4254,6.69965.2432,9.05964-.888,1.6923-.81113-.82451-2.128-2.52492-1.313-2.79809,1.34114-6.94786.31435-9.73041-.48147-3.47447-.99371-7.01006-2.01959-11.23814-1.7553-7.69255.48085-11.70566,4.77826-7.41974,7.82227,1.325.94105,4.66021.12732,3.3185-.8256Z"
                      transform="translate(-382.87122 -69.40728)"
                      fill="#e6e6e6"
                    />
                    <ellipse
                      cx="267.33175"
                      cy="738.62768"
                      rx="3.74666"
                      ry="1.77717"
                      fill="#e6e6e6"
                    />
                    <polygon
                      points="272.105 705.445 255.138 705.444 247.067 640 272.108 640.002 272.105 705.445"
                      fill="#ffb6b6"
                    />
                    <path
                      d="M655.57311,792.55223l-52.175-.002v-.65976a20.30911,20.30911,0,0,1,20.308-20.30767h.00126l9.53041-7.23023,17.78167,7.23138,4.55456.00011Z"
                      transform="translate(-382.87122 -69.40728)"
                      fill="#2f2e41"
                    />
                    <polygon
                      points="350.105 741.445 333.138 741.444 325.067 676 350.108 676.002 350.105 741.445"
                      fill="#ffb6b6"
                    />
                    <path
                      d="M733.57311,828.55223l-52.175-.002v-.65976a20.30911,20.30911,0,0,1,20.308-20.30767h.00126l9.53041-7.23023,17.78167,7.23138,4.55456.00011Z"
                      transform="translate(-382.87122 -69.40728)"
                      fill="#2f2e41"
                    />
                    <path
                      d="M524.22665,287.49041a12.06788,12.06788,0,0,0,18.3735-.45414l57.8516,16.46737,8.48906-14.88182-68.85423-19.05617a12.051,12.051,0,0,0-15.85993,17.92476Z"
                      transform="translate(-382.87122 -69.40728)"
                      fill="#ffb6b6"
                    />
                    <path
                      d="M674.667,425.22617,613.79472,564.40728l-7,22L627.95845,740.8235l34.16023-1.667-.07675-19.80249s-8.12947-4.40859-.02636-6.803,7.76175-8.47335-.06757-17.43391-.367-94.70974-.367-94.70974,32.23738-30.87035,28.72557-38.93518,3.00751-8.06482,3.00751-8.06482,6.95034-1.243,7.21552-4.62149,5.41632-10.17129,5.41632-10.17129l-1.80454,237.823h29.47434s13.47536-22.39246,10.82721-27.21136-6.35185-5.29133,0-11.05511,15.67428-1.04725,11.51306-11.90552-3.0921-128.03414-3.0921-128.03414,16.39632-67.99739,6.26624-72.6144-5.09378-3.96532.88807-10.29116-4.1633-5.74782.90928-10.53683,5.27711-61.15214,5.27711-61.15214Z"
                      transform="translate(-382.87122 -69.40728)"
                      fill="#2f2e41"
                    />
                    <path
                      d="M770.79472,464.40728c-42.67-.1-79.28,9.49-121.95,9.39,2.78-19.23959,12.49543-49.39649,15.274-68.64082,3.908-27.06713.87769-43.223,4.776-70.28923.39-2.65.77-5.29,1.15-7.94,1.54-10.7-2.15-21.4,4.47-32.7,2.82-4.82,7.51-9.74,15.28-14.82,16.14,1.64,15.86-5.64,32-4l5.34,10.64c.68,4.04,3.13,6.67,6.45,8.66,6.83,4.13,17.35,5.57,23.67,11.16,7.94,7.02,7.41,18.25,5.05,29.21-.84,3.9-1.91,7.76-2.92,11.39-8.12916,29.24663,2.26154,51.55937,10.73394,78.6892.8034,2.5726-6.8055,12.52114-6,15,1.36739,4.20048,6.26221,9.42571,5.48287,12.26448C768.63684,455.93487,767.675,459.241,770.79472,464.40728Z"
                      transform="translate(-382.87122 -69.40728)"
                      fill="#3b82f6"
                    />
                    <path
                      d="M762.30473,335.07726l-93.41-.21-3-.01-110.776-40.70082,14.176.48079,6.58-15.17,3.17-7.29,65.29,21.82,30.18.23,56.9.42c.73.01,1.45.03,2.17.06,6.83,4.13,17.35,5.57,23.67,11.16C765.19474,312.88726,764.66471,324.11724,762.30473,335.07726Z"
                      transform="translate(-382.87122 -69.40728)"
                      fill="#3b82f6"
                    />
                    <circle
                      cx="315.61568"
                      cy="172.74238"
                      r="30.35523"
                      fill="#ffb6b6"
                    />
                    <path
                      d="M694.173,268.241l2.47263,7.90626c5.48266-2.70663,21.039-6.46224,25.60427-10.52964s8.09625-9.68028,8.3124-15.79083c.11163-3.15584-.65256-6.33936-.12819-9.45334.59251-3.51869,2.76431-6.56908,3.75846-9.996a15.94482,15.94482,0,0,0-8.60175-18.40534c-5.03174-2.21135-10.78558-1.59063-16.25576-2.12507s-11.57219-3.009-13.11186-8.28516c-.57566-1.97269-.5097-4.29862-2.27191-5.59026a4.312,4.312,0,0,0-5.70961.8255q-.12173.13819-.234.2791c-4.63049,5.80881-13.35744,6.24006-17.92443.38119q-.44768-.57431-.86068-1.17517a9.9482,9.9482,0,0,0-.39383,14.13311,7.67218,7.67218,0,0,1-7.46479-5.88707c-2.09487,2.8934-4.24492,5.91084-4.91847,9.41892s.57662,7.6572,3.79382,9.20959a12.32668,12.32668,0,0,0,5.16762.84612c-8.29938,9.81679-3.31988,9.53436,13.48737.25625,8.33789.15842,5.04489,7.90607,5.153,16.24475v0c3.92391-.377,7.96533-.74569,11.67583.90684a8.96128,8.96128,0,0,1,4.16462,3.57852c2.45222,4.21228.01936,8.59024-2.13688,12.42155-1.84317,3.275-3.59054,7.219-2.061,10.65171"
                      transform="translate(-382.87122 -69.40728)"
                      fill="#2f2e41"
                    />
                    <path
                      d="M638.92558,522.71468a12.06788,12.06788,0,0,0,3.65622-18.01176L671.54023,451.983l-12.613-11.59509-33.93654,62.86774a12.051,12.051,0,0,0,13.93485,19.45905Z"
                      transform="translate(-382.87122 -69.40728)"
                      fill="#ffb6b6"
                    />
                    <path
                      d="M709.55472,276.17728l-6.75,120.92-32.52,75.99-21.166,28.06919,2.406-12.71919-14.59-7.3-1.37-.68,19.42-49.19,5.86-14.84,2.73-44.67,2.58-42.24a52.634,52.634,0,0,1,19.34-37.63l16.2-13.16Z"
                      transform="translate(-382.87122 -69.40728)"
                      fill="#3b82f6"
                    />
                    <path
                      d="M561.31855,829.40272a1.18646,1.18646,0,0,0,1.19006,1.19h253.29a1.19,1.19,0,1,0,0-2.38h-253.29A1.18651,1.18651,0,0,0,561.31855,829.40272Z"
                      transform="translate(-382.87122 -69.40728)"
                      fill="#ccc"
                    />
                    <path
                      d="M433.80718,171.94012c-1.25146,18.49339-.65024,39.48221,13.70529,53.20138a32.86133,32.86133,0,0,0,11.78253,7.30243c1.82437.64311,2.60907-2.25425.79752-2.89283-7.37453-2.59959-13.17629-8.31245-17.04186-14.99167-4.53158-7.83-6.2606-16.86281-6.63914-25.816a153.14075,153.14075,0,0,1,.39566-16.80334c.13042-1.92716-2.87013-1.91911-3,0Z"
                      transform="translate(-382.87122 -69.40728)"
                      fill="#3f3d56"
                    />
                    <path
                      d="M456.16937,214.25965c3.55835,1.65308,7.288,3.33513,10.10278,6.14585,2.56779,2.56406,4.36066,6.304,3.32031,9.95874-1.70684,5.996-9.30837,8.25675-14.60828,9.68668a1.50128,1.50128,0,0,0,.79752,2.89284c5.33141-1.43843,11.30948-3.44656,14.792-8.01084,4.12085-5.40083,2.16456-12.51974-2.46451-16.92522-2.98218-2.83815-6.73353-4.62322-10.42569-6.33846-1.73985-.80826-3.26531,1.7769-1.51416,2.59041Z"
                      transform="translate(-382.87122 -69.40728)"
                      fill="#3f3d56"
                    />
                  </svg>