<svg width="834" height="133" viewBox="0 0 834 133" fill="none" xmlns="http://www.w3.org/2000/svg">
<rect x="0.341949" y="0.986572" width="131.21" height="131.209" rx="12" fill="#63D1F4"/>
<path d="M716.585 13.1667C716.585 3.92911 726.585 -1.8444 734.585 2.7744L827.119 56.1985C835.119 60.8174 835.119 72.3644 827.119 76.9832L734.585 130.407C726.585 135.026 716.585 129.253 716.585 120.015L716.585 13.1667Z" fill="#F46363"/>
<path d="M169.351 98.2748C162.399 91.3228 158.923 82.8748 158.923 72.9308C158.923 62.9868 162.399 54.5828 169.351 47.7188C176.391 40.7668 185.015 37.2908 195.223 37.2908C205.607 37.2908 214.143 40.7228 220.831 47.5868C227.519 54.4508 230.863 62.8988 230.863 72.9308V76.8908H178.063C178.767 81.2908 180.747 85.0308 184.003 88.1108C187.259 91.1908 190.999 92.7308 195.223 92.7308C199.887 92.7308 203.891 91.4108 207.235 88.7708C208.555 87.6268 209.611 86.3068 210.403 84.8108H230.203C228.707 89.2988 226.507 93.2588 223.603 96.6908C216.563 104.611 207.103 108.571 195.223 108.571C185.015 108.571 176.391 105.139 169.351 98.2748ZM178.723 65.6708H211.063C210.359 62.1508 208.555 59.2028 205.651 56.8268C202.835 54.3628 199.359 53.1308 195.223 53.1308C191.087 53.1308 187.567 54.3188 184.663 56.6948C181.759 59.0708 179.779 62.0628 178.723 65.6708Z" fill="#1E1E1E"/>
<path d="M247.576 98.8028C241.68 92.2028 238.732 83.5788 238.732 72.9308C238.732 62.2828 241.68 53.7028 247.576 47.1908C253.56 40.5908 260.952 37.2908 269.752 37.2908C275.648 37.2908 280.972 39.0508 285.724 42.5708C287.748 44.2428 289.464 46.0028 290.872 47.8508H291.532V14.1908H310.012V106.591H291.532V98.0108H290.872C289.464 99.8588 287.748 101.619 285.724 103.291C280.972 106.811 275.648 108.571 269.752 108.571C260.952 108.571 253.56 105.315 247.576 98.8028ZM262.492 58.4108C259.412 61.9308 257.872 66.7708 257.872 72.9308C257.872 79.0908 259.412 83.9308 262.492 87.4508C265.572 90.9708 269.532 92.7308 274.372 92.7308C279.476 92.7308 283.612 91.0148 286.78 87.5828C289.948 84.0628 291.532 79.1788 291.532 72.9308C291.532 66.6828 289.948 61.8428 286.78 58.4108C283.612 54.8908 279.476 53.1308 274.372 53.1308C269.532 53.1308 265.572 54.8908 262.492 58.4108Z" fill="#1E1E1E"/>
<path d="M319.252 55.1108V39.2708H327.832V24.7508H346.312V39.2708H365.32V55.1108H346.312V90.7508H366.112V106.591H327.832V55.1108H319.252Z" fill="#1E1E1E"/>
<path d="M383.078 98.2748C376.126 91.3228 372.65 82.8748 372.65 72.9308C372.65 62.9868 376.126 54.5828 383.078 47.7188C390.118 40.7668 398.742 37.2908 408.95 37.2908C419.334 37.2908 427.87 40.7228 434.558 47.5868C441.246 54.4508 444.59 62.8988 444.59 72.9308V76.8908H391.79C392.494 81.2908 394.474 85.0308 397.73 88.1108C400.986 91.1908 404.726 92.7308 408.95 92.7308C413.614 92.7308 417.618 91.4108 420.962 88.7708C422.282 87.6268 423.338 86.3068 424.13 84.8108H443.93C442.434 89.2988 440.234 93.2588 437.33 96.6908C430.29 104.611 420.83 108.571 408.95 108.571C398.742 108.571 390.118 105.139 383.078 98.2748ZM392.45 65.6708H424.79C424.086 62.1508 422.282 59.2028 419.378 56.8268C416.562 54.3628 413.086 53.1308 408.95 53.1308C404.814 53.1308 401.294 54.3188 398.39 56.6948C395.486 59.0708 393.506 62.0628 392.45 65.6708Z" fill="#1E1E1E"/>
<path d="M461.302 98.8028C455.406 92.2028 452.458 83.5788 452.458 72.9308C452.458 62.2828 455.406 53.7028 461.302 47.1908C467.286 40.5908 474.678 37.2908 483.478 37.2908C489.374 37.2908 494.698 39.0508 499.45 42.5708C501.474 44.2428 503.19 46.0028 504.598 47.8508H505.258V39.2708H523.738V106.591H505.258V98.0108H504.598C503.19 99.8588 501.474 101.619 499.45 103.291C494.698 106.811 489.374 108.571 483.478 108.571C474.678 108.571 467.286 105.315 461.302 98.8028ZM476.218 58.4108C473.138 61.9308 471.598 66.7708 471.598 72.9308C471.598 79.0908 473.138 83.9308 476.218 87.4508C479.298 90.9708 483.258 92.7308 488.098 92.7308C493.202 92.7308 497.338 91.0148 500.506 87.5828C503.674 84.0628 505.258 79.1788 505.258 72.9308C505.258 66.6828 503.674 61.8428 500.506 58.4108C497.338 54.8908 493.202 53.1308 488.098 53.1308C483.258 53.1308 479.298 54.8908 476.218 58.4108Z" fill="#1E1E1E"/>
<path d="M544.726 98.2748C537.774 91.3228 534.298 82.8748 534.298 72.9308C534.298 62.9868 537.774 54.5828 544.726 47.7188C551.766 40.7668 560.39 37.2908 570.598 37.2908C582.83 37.2908 592.158 41.6908 598.582 50.4908C601.486 54.2748 603.598 58.6748 604.918 63.6908H585.778C584.986 61.7548 583.93 59.9948 582.61 58.4108C579.266 54.8908 575.262 53.1308 570.598 53.1308C565.934 53.1308 561.886 54.9788 558.454 58.6748C555.11 62.3708 553.438 67.1228 553.438 72.9308C553.438 78.7388 555.11 83.4908 558.454 87.1868C561.886 90.8828 565.934 92.7308 570.598 92.7308C575.262 92.7308 579.266 90.9708 582.61 87.4508C583.93 85.8668 584.986 84.1068 585.778 82.1708H604.918C603.686 87.2748 601.662 91.6748 598.846 95.3708C592.422 104.171 583.006 108.571 570.598 108.571C560.39 108.571 551.766 105.139 544.726 98.2748Z" fill="#1E1E1E"/>
<path d="M615.473 106.591V14.1908H633.953V48.5108H634.613C635.757 46.4868 637.385 44.6388 639.497 42.9668C644.337 39.1828 649.749 37.2908 655.733 37.2908C664.093 37.2908 670.561 39.7108 675.137 44.5508C679.801 49.3908 682.133 56.4308 682.133 65.6708V106.591H663.653V68.3108C663.653 63.3828 662.421 59.6428 659.957 57.0908C657.581 54.4508 654.193 53.1308 649.793 53.1308C645.393 53.1308 641.653 54.8028 638.573 58.1468C635.493 61.4908 633.953 65.7588 633.953 70.9508V106.591H615.473Z" fill="#1E1E1E"/>
</svg>
